<?xml version="1.0" encoding="utf-8"?>
<svg version="1.1" id="Groupe_1_1_" xmlns="http://www.w3.org/2000/svg" xmlns:xlink="http://www.w3.org/1999/xlink" x="0px"
	 y="0px" viewBox="-36.79 2.58 335.43 335.43" enable-background="new -36.79 2.58 335.43 335.43" xml:space="preserve">
<path id="logo-s" fill="#20C5E5" d="M138.983,217.415c-4.821-4.229-10.631-7.932-17.445-11.1c-6.814-3.168-14.568-6.393-23.254-9.684
	c-6.579-2.349-12.219-4.577-16.918-6.693c-4.699-2.114-8.637-4.399-11.805-6.863c-3.176-2.471-5.526-5.226-7.049-8.281
	c-1.531-3.046-2.293-6.571-2.293-10.566c0-7.754,3.403-13.442,10.217-17.088c6.814-3.638,14.803-5.461,23.959-5.461
	c10.574,0,19.616,1.005,27.136,2.998c7.511,2.001,13.037,3.93,16.562,5.817l-0.032-30.117c0,0-1.183-0.34-1.904-0.535
	c-3.411-0.94-7.341-1.815-11.805-2.641c-4.465-0.819-9.286-1.523-14.447-2.115c-5.169-0.584-10.339-0.875-15.5-0.875
	c-20.67,0-37.005,4.756-48.98,14.269c-11.984,9.488-17.971,22.347-17.971,38.552c0,8.224,1.41,15.143,4.229,20.783
	c2.82,5.639,6.571,10.452,11.279,14.447c4.7,3.994,10.274,7.462,16.74,10.396c6.458,2.94,13.215,5.817,20.264,8.629
	c14.561,5.866,25.013,11.158,31.357,15.848c6.344,4.7,9.521,11.045,9.521,19.025c0,7.747-3.233,13.385-9.691,16.91
	c-6.466,3.525-16.384,5.461-29.777,5.461c-13.645-0.194-22.995-0.988-32.775-4.229c-8.338-2.861-14.034-4.838-17.971-6.344
	l0.016,30.408c3.111,1.029,8.086,2.593,12.664,3.946c10.152,2.788,21.845,3.873,38.058,3.873c23.263,0,41.169-4.343,53.737-13.037
	c12.567-8.687,18.855-21.496,18.855-38.399c0-8.686-1.296-16.035-3.873-22.023C147.491,226.75,143.796,221.638,138.983,217.415z"/>
<path id="logo-l" fill="#20C5E5" d="M212.903,270.609c-2.114-2.114-3.646-4.934-4.577-8.451c-0.94-3.525-1.41-7.982-1.41-13.386V34.402
	l-32.767,7.527v212.126c0,17.379,4.23,30.182,12.681,38.398c8.46,8.224,24.9,13.313,47.57,13.58v-28.018
	c-5.169-0.706-9.513-1.589-13.037-2.642C217.838,274.313,215.018,272.724,212.903,270.609z"/>
</svg>
